HIERARCHY
ROOT Hips
{
	OFFSET 0.000000 0.000000 0.000000
	CHANNELS 6 Xposition Yposition Zposition Zrotation Yrotation Xrotation 
	JOINT LeftUpLeg_virtual
	{
		OFFSET 0.000000 0.000000 0.000000
		CHANNELS 3 Zrotation Yrotation Xrotation
		JOINT LeftUpLeg
		{
			OFFSET 8.479694 -4.795517 -0.379053
			CHANNELS 3 Zrotation Yrotation Xrotation
			JOINT LeftLeg
			{
				OFFSET 0.485052 -32.551468 0.112863
				CHANNELS 3 Zrotation Yrotation Xrotation
				JOINT LeftFoot
				{
					OFFSET 0.438033 -32.635670 -3.012641
					CHANNELS 3 Zrotation Yrotation Xrotation
					JOINT LeftToeBase
					{
						OFFSET 0.970169 -13.225353 11.864223
						CHANNELS 3 Zrotation Yrotation Xrotation
						End Site
						{
							OFFSET 0.000000 0.000000 0.000000
						}
					}
				}
			}
		}
	}
	JOINT RightUpLeg_virtual
	{
		OFFSET 0.000000 0.000000 0.000000
		CHANNELS 3 Zrotation Yrotation Xrotation
		JOINT RightUpLeg
		{
			OFFSET -8.479694 -4.795517 -0.379053
			CHANNELS 3 Zrotation Yrotation Xrotation
			JOINT RightLeg
			{
				OFFSET -0.484100 -32.551483 0.112903
				CHANNELS 3 Zrotation Yrotation Xrotation
				JOINT RightFoot
				{
					OFFSET -0.438985 -32.635651 -3.012681
					CHANNELS 3 Zrotation Yrotation Xrotation
					JOINT RightToeBase
					{
						OFFSET -0.970169 -13.225354 11.864223
						CHANNELS 3 Zrotation Yrotation Xrotation
						End Site
						{
							OFFSET 0.000000 0.000000 0.000000
						}
					}
				}
			}
		}
	}
	JOINT Spine_virtual
	{
		OFFSET 0.000000 0.000000 0.000000
		CHANNELS 3 Zrotation Yrotation Xrotation
		JOINT Spine
		{
			OFFSET 0.000000 7.722015 1.166203
			CHANNELS 3 Zrotation Yrotation Xrotation
			JOINT Spine1
			{
				OFFSET 0.000000 12.024086 0.248766
				CHANNELS 3 Zrotation Yrotation Xrotation
				JOINT Spine2
				{
					OFFSET -0.000000 11.503036 -0.491240
					CHANNELS 3 Zrotation Yrotation Xrotation
					JOINT Neck_virtual
					{
						OFFSET 0.000000 0.000000 0.000000
						CHANNELS 3 Zrotation Yrotation Xrotation
						JOINT Neck
						{
							OFFSET 0.000000 18.430687 -3.123054
							CHANNELS 3 Zrotation Yrotation Xrotation
							JOINT Head
							{
								OFFSET -0.000000 9.051071 1.034021
								CHANNELS 3 Zrotation Yrotation Xrotation
								End Site
								{
									OFFSET 0.000000 0.000000 0.000000
								}
							}
						}
					}
					JOINT LeftShoulder_virtual
					{
						OFFSET 0.000000 0.000000 0.000000
						CHANNELS 3 Zrotation Yrotation Xrotation
						JOINT LeftShoulder
						{
							OFFSET 6.197824 13.665230 -4.064723
							CHANNELS 3 Zrotation Yrotation Xrotation
							JOINT LeftArm
							{
								OFFSET 7.778132 -0.187073 -1.709282
								CHANNELS 3 Zrotation Yrotation Xrotation
								JOINT LeftForeArm
								{
									OFFSET 21.954697 0.000000 -2.041093
									CHANNELS 3 Zrotation Yrotation Xrotation
									JOINT LeftHand
									{
										OFFSET 22.992908 0.000000 -0.870901
										CHANNELS 3 Zrotation Yrotation Xrotation
										End Site
										{
											OFFSET 0.000000 0.000000 0.000000
										}
									}
								}
							}
						}
					}
					JOINT RightShoulder_virtual
					{
						OFFSET 0.000000 0.000000 0.000000
						CHANNELS 3 Zrotation Yrotation Xrotation
						JOINT RightShoulder
						{
							OFFSET -6.197824 13.665230 -4.064723
							CHANNELS 3 Zrotation Yrotation Xrotation
							JOINT RightArm
							{
								OFFSET -7.778132 -0.187073 -1.709282
								CHANNELS 3 Zrotation Yrotation Xrotation
								JOINT RightForeArm
								{
									OFFSET -21.954697 0.000000 -2.041093
									CHANNELS 3 Zrotation Yrotation Xrotation
									JOINT RightHand
									{
										OFFSET -22.992908 0.000000 -0.870901
										CHANNELS 3 Zrotation Yrotation Xrotation
										End Site
										{
											OFFSET 0.000000 0.000000 0.000000
										}
									}
								}
							}
						}
					}
				}
			}
		}
	}
}
MOTION
Frames: 8
Frame Time: 0.033333
0.897235 81.694664 -15.742417 -179.985470 -2.461606 179.980990 -4.635984 0.447984 14.159546 5.598655 -5.121914 -20.174379 3.887788 4.298577 26.627865 2.248437 -5.591684 -9.142342 0.000000 0.000000 0.000000 -0.361246 -0.395785 14.810623 -4.466510 2.204759 -17.758866 -1.514028 5.874016 25.129304 11.448986 6.752338 -9.754364 0.000000 0.000000 0.000000 0.779073 2.485550 2.185332 -4.591493 -0.258550 -6.062286 -0.887122 -2.783545 5.107166 -0.017476 -0.004464 0.062361 -1.174595 -1.533472 5.098878 -0.720669 1.822121 -13.284448 0.000000 0.000000 0.000000 0.569643 -0.753119 2.497598 14.194634 8.902679 -4.445298 -4.567328 -3.648950 -44.693435 1.004463 -34.865404 -7.674118 0.000000 0.000000 0.000000 -3.958788 0.444840 1.680585 5.158430 -12.465275 -2.338127 13.857539 -7.338706 -51.543787 -2.204597 34.029894 -4.961906 0.000000 0.000000 0.000000 
0.896093 81.693741 -15.726141 179.895394 -2.528641 -179.989446 -4.611288 0.418205 14.100612 5.349419 -5.029530 -20.219590 3.807241 4.522001 26.690670 2.511737 -5.326173 -9.418233 0.000000 0.000000 0.000000 -0.207505 -0.447930 14.870896 -4.897767 2.381528 -17.710076 -1.618888 6.132236 24.767613 11.873723 7.191802 -9.609825 0.000000 0.000000 0.000000 0.704379 2.466383 2.188826 -4.635819 -0.252153 -6.077263 -0.913483 -2.764678 5.084107 -0.005723 0.003479 0.039616 -1.159011 -1.515507 5.130495 -0.700889 1.797096 -13.309744 0.000000 0.000000 0.000000 0.585398 -0.826337 2.571820 14.218940 8.899891 -4.449952 -4.567920 -3.657066 -44.651754 1.031454 -34.884187 -7.739467 0.000000 0.000000 0.000000 -3.954004 0.432046 1.683630 5.157349 -12.513746 -2.438446 13.902153 -7.419284 -51.603582 -2.051062 34.011538 -4.846448 0.000000 0.000000 0.000000 
0.892475 81.697784 -15.712405 179.934790 -2.433800 -179.988558 -4.561593 0.482062 14.102490 5.330153 -4.972622 -20.185326 3.781089 4.597890 26.611947 2.539370 -5.292836 -9.419580 0.000000 0.000000 0.000000 -0.159869 -0.392226 14.839856 -4.908328 2.448890 -17.731239 -1.634849 6.195837 24.796327 11.928594 7.232129 -9.552781 0.000000 0.000000 0.000000 0.737637 2.445096 2.193930 -4.621173 -0.253008 -6.095044 -0.915446 -2.765467 5.078524 -0.030597 -0.002759 0.039194 -1.138813 -1.515080 5.127859 -0.699523 1.804354 -13.308748 0.000000 0.000000 0.000000 0.613421 -0.776420 2.506428 14.190925 9.020462 -4.395067 -4.582759 -3.603700 -44.594711 1.024750 -34.922846 -7.725954 0.000000 0.000000 0.000000 -3.930378 0.521758 1.716889 5.167733 -12.436898 -2.502739 13.890109 -7.390088 -51.623540 -2.062999 34.009824 -4.824792 0.000000 0.000000 0.000000 
0.896595 81.701187 -15.701856 179.978654 -2.567494 179.993503 -4.593460 0.422646 14.081116 5.452706 -4.928563 -20.176394 3.837032 4.586837 26.643424 2.379617 -5.460021 -9.449302 0.000000 0.000000 0.000000 -0.270260 -0.497478 14.859042 -4.717838 2.515724 -17.695712 -1.595449 6.232518 24.745717 11.761313 7.026291 -9.560830 0.000000 0.000000 0.000000 0.764007 2.381123 2.219378 -4.604395 -0.278074 -6.134638 -0.890133 -2.805732 5.075704 0.008353 -0.037245 0.015673 -1.200919 -1.561423 5.117999 -0.705579 1.966460 -13.295889 0.000000 0.000000 0.000000 0.557757 -0.727832 2.516755 14.205226 9.055172 -4.476935 -4.572278 -3.561241 -44.375278 1.133690 -34.936189 -7.828359 0.000000 0.000000 0.000000 -3.991357 0.536606 1.712588 5.198197 -12.380794 -2.446333 13.943520 -7.356352 -51.572863 -2.161979 33.990242 -4.925880 0.000000 0.000000 0.000000 
0.898928 81.705696 -15.698294 179.935296 -2.586148 179.995784 -4.627912 0.425762 14.071614 5.450888 -4.931377 -20.158234 3.810921 4.616862 26.622080 2.355580 -5.479792 -9.416754 0.000000 0.000000 0.000000 -0.303336 -0.486919 14.843768 -4.728164 2.486379 -17.676533 -1.612845 6.231496 24.735218 11.778892 7.023198 -9.544115 0.000000 0.000000 0.000000 0.742844 2.463401 2.239872 -4.623300 -0.162421 -6.150486 -0.884794 -2.863488 5.098781 0.025586 -0.099435 0.027631 -1.195930 -1.544384 5.102567 -0.651268 1.966044 -13.283013 0.000000 0.000000 0.000000 0.529386 -0.754057 2.527493 14.226993 9.073101 -4.424102 -4.577335 -3.584224 -44.490831 1.064540 -34.956666 -7.747563 0.000000 0.000000 0.000000 -3.994765 0.484873 1.706853 5.235044 -12.385496 -2.481518 13.970892 -7.292579 -51.456098 -2.260537 33.970742 -5.009997 0.000000 0.000000 0.000000 
0.899356 81.710083 -15.699539 179.917647 -2.623465 -179.966728 -4.588453 0.415683 14.061555 5.390166 -4.938270 -20.152429 3.760324 4.613734 26.612941 2.420354 -5.397125 -9.331802 0.000000 0.000000 0.000000 -0.196012 -0.511719 14.807912 -4.843466 2.361276 -17.684943 -1.634395 6.174579 24.772852 11.898676 7.134287 -9.549628 0.000000 0.000000 0.000000 0.732898 2.383773 2.220617 -4.630719 -0.222930 -6.189100 -0.898267 -2.775697 5.102718 -0.023746 -0.020278 0.040627 -1.130259 -1.492232 5.091992 -0.628875 1.926896 -13.240544 0.000000 0.000000 0.000000 0.609838 -0.774235 2.560298 14.221480 9.095201 -4.435293 -4.562073 -3.621597 -44.548208 0.990546 -34.917269 -7.670506 0.000000 0.000000 0.000000 -3.941452 0.488854 1.636351 5.275768 -12.369678 -2.485825 13.980364 -7.399106 -51.565165 -2.181924 34.010032 -4.897807 0.000000 0.000000 0.000000 
0.902090 81.709785 -15.703000 179.896815 -2.605431 -179.964761 -4.643393 0.431449 14.053827 5.442657 -4.871871 -20.152687 3.747350 4.666468 26.651273 2.351352 -5.486947 -9.354622 0.000000 0.000000 0.000000 -0.280610 -0.500878 14.795892 -4.795583 2.366688 -17.677964 -1.622354 6.223506 24.799105 11.849217 7.070481 -9.541352 0.000000 0.000000 0.000000 0.707836 2.386081 2.227052 -4.650418 -0.182631 -6.207223 -0.878421 -2.734420 5.121515 -0.013308 0.017954 0.045482 -1.105251 -1.527828 5.080436 -0.568789 1.910860 -13.189076 0.000000 0.000000 0.000000 0.624312 -0.804897 2.566581 14.229106 9.082177 -4.469809 -4.565312 -3.640571 -44.598929 0.978224 -34.862491 -7.651464 0.000000 0.000000 0.000000 -3.911916 0.417891 1.641645 5.322673 -12.386736 -2.500201 13.987511 -7.307765 -51.378671 -2.347730 34.018283 -5.057837 0.000000 0.000000 0.000000 
0.907762 81.710716 -15.706696 179.930241 -2.543208 -179.939421 -4.576501 0.395026 14.014457 5.435926 -4.857664 -20.173582 3.697002 4.735727 26.626804 2.408325 -5.452051 -9.376038 0.000000 0.000000 0.000000 -0.170553 -0.513070 14.744575 -4.869492 2.304573 -17.744000 -1.596861 6.258478 24.910914 11.923681 7.147362 -9.541108 0.000000 0.000000 0.000000 0.736041 2.361962 2.207929 -4.648611 -0.189151 -6.237871 -0.856642 -2.730796 5.110733 -0.034594 0.008564 0.019657 -1.062775 -1.502836 5.122089 -0.542289 1.971775 -13.155716 0.000000 0.000000 0.000000 0.696489 -0.800183 2.525920 14.209043 9.049607 -4.345003 -4.655923 -3.450519 -44.516308 0.989866 -34.831301 -7.621458 0.000000 0.000000 0.000000 -3.864540 0.504351 1.702021 5.342564 -12.332117 -2.591282 13.926605 -7.376841 -51.509896 -2.246341 34.104709 -4.920394 0.000000 0.000000 0.000000 
